<svg width="144" height="33" viewBox="0 0 144 33" fill="none" xmlns="http://www.w3.org/2000/svg">
<path d="M16.4655 8.2752e-06C12.1673 -0.000610856 8.0407 1.69115 4.97444 4.71098C4.92731 4.75429 4.8743 4.78776 4.82717 4.83304C4.78004 4.87832 4.74863 4.93344 4.70543 4.98069C1.69683 8.05407 0.00785075 12.1861 2.72999e-05 16.4924C-0.00779615 20.7986 1.66616 24.9369 4.66357 28.0212C7.66097 31.1056 11.7436 32.8909 16.0376 32.9952C20.3316 33.0994 24.4956 31.5142 27.6384 28.5789C27.8006 28.4508 27.9554 28.3134 28.1018 28.1674C28.147 28.1221 28.1804 28.067 28.2236 28.0217C30.4909 25.7026 32.0245 22.7636 32.6317 19.5737C33.239 16.3838 32.8929 13.0851 31.6368 10.0917C30.3808 7.09835 28.2708 4.54363 25.5717 2.74823C22.8726 0.952829 19.7046 -0.00324504 16.4655 8.2752e-06ZM16.4655 1.30325C20.2584 1.30438 23.9115 2.73913 26.6959 5.32126L22.3661 9.66214C17.9735 5.43348 13.0292 3.09275 9.22172 3.15575C11.4424 1.93708 13.9339 1.29992 16.4655 1.30325ZM27.2653 27.1437C27.2044 27.2067 27.1436 27.2678 27.0807 27.3288C24.1353 30.0731 17.1527 27.8485 11.4818 22.4072L13.092 20.8067C14.1425 21.6366 15.4602 22.0514 16.7953 21.9724C18.1305 21.8933 19.3903 21.326 20.3361 20.3778C21.2818 19.4296 21.8477 18.1665 21.9266 16.828C22.0054 15.4894 21.5917 14.1683 20.7638 13.1151L22.37 11.5048C27.7857 17.1902 30.0046 24.1986 27.2653 27.1437ZM5.66367 5.85871C5.71668 5.80162 5.77167 5.74649 5.82665 5.69137C6.68278 4.87832 7.88451 4.48459 9.31009 4.48459C12.7444 4.48459 17.4316 6.72885 21.4511 10.5874L19.8409 12.2017C18.7905 11.3781 17.4759 10.9681 16.1449 11.0491C14.8138 11.1301 13.5583 11.6963 12.6149 12.6412C11.6715 13.586 11.1054 14.8442 11.0233 16.1786C10.9411 17.513 11.3487 18.8314 12.1691 19.8853L10.5629 21.4957C5.14528 15.8102 2.9264 8.80184 5.66367 5.85871ZM20.6362 16.4993C20.6346 17.6077 20.1947 18.6704 19.4129 19.4542C18.6311 20.2381 17.5711 20.6791 16.4655 20.6807C15.3619 20.6724 14.3058 20.2292 13.5254 19.4468C12.745 18.6645 12.303 17.6057 12.2948 16.4993C12.2963 15.3908 12.7362 14.3281 13.5181 13.5443C14.2999 12.7604 15.3598 12.3194 16.4655 12.3178C17.3457 12.3203 18.2022 12.6045 18.9102 13.1289C19.2623 13.3864 19.5723 13.6973 19.8291 14.0503C20.351 14.7598 20.6337 15.6177 20.6362 16.4993ZM3.16007 9.23888C3.09134 13.0561 5.43393 18.0053 9.6439 22.417L5.32396 26.7579C3.18042 24.4313 1.81899 21.4892 1.43149 18.3459C1.04399 15.2026 1.64995 12.0167 3.16399 9.23691L3.16007 9.23888ZM16.4714 31.6972C12.678 31.6952 9.02464 30.2606 6.239 27.6792L10.5589 23.3482C14.8966 27.5237 19.7722 29.8447 23.56 29.8447H23.7092C21.4882 31.0625 18.9969 31.6996 16.4655 31.6972H16.4714ZM23.2851 10.5835L27.6148 6.25244C29.7595 8.57837 31.1216 11.5206 31.5091 14.6642C31.8967 17.8078 31.29 20.994 29.7748 23.7734C29.8377 19.9444 27.5029 14.9873 23.2851 10.5835Z" fill="#1782ED"/>
<path d="M53.7699 19.1373C53.7699 19.4267 53.7404 19.7456 53.711 20.035H41.032C41.4365 22.988 43.7182 24.8129 46.7794 24.8129C49.0612 24.8129 50.6497 23.742 51.4293 22.3521L53.1062 23.3364C51.8927 25.3051 49.6679 26.6654 46.752 26.6654C42.1885 26.6654 39.0684 23.4526 39.0684 19.0802C39.0684 14.824 42.1296 11.493 46.6067 11.493C51.0267 11.493 53.7699 15.1705 53.7699 19.1373ZM41.032 18.1825H51.8063C51.4018 14.9972 49.0906 13.3455 46.6067 13.3455C43.5748 13.3455 41.409 15.3437 41.032 18.1825Z" fill="#2B364E"/>
<path d="M59.8662 13.6939V22.4682C59.8662 24.9585 61.2231 24.7558 64.0251 24.6337V26.313C60.1254 26.8918 57.9595 25.937 57.9595 22.4623V13.6939H54.9277V11.8414H57.9595V8.35891L59.8662 7.76831V11.8237H64.0251V13.6762L59.8662 13.6939Z" fill="#2B364E"/>
<path d="M79.621 17.4283V26.3187H77.7143V17.4283C77.7143 14.8513 76.2986 13.3453 73.7871 13.3453C71.2756 13.3453 69.1098 14.8513 69.1098 18.7315V26.3187H67.2031V6.04163H69.1098V14.0914C70.2349 12.2665 71.9099 11.4849 73.9619 11.4849C77.4826 11.4928 79.621 13.8099 79.621 17.4283Z" fill="#2B364E"/>
<path d="M97.6434 11.8413V26.3188H95.7368V23.48C94.5232 25.4211 92.4732 26.6672 89.9029 26.6672C87.9172 26.6352 86.0236 25.8218 84.6306 24.4026C83.2377 22.9834 82.457 21.0721 82.457 19.081C82.457 17.09 83.2377 15.1787 84.6306 13.7595C86.0236 12.3403 87.9172 11.5269 89.9029 11.4949C91.0676 11.4717 92.2181 11.7533 93.2412 12.3118C94.2642 12.8704 95.1243 13.6867 95.7368 14.6801V11.8413H97.6434ZM95.7368 19.0801C95.7321 17.9519 95.3942 16.8505 94.7656 15.9147C94.1371 14.979 93.2461 14.2509 92.2052 13.8224C91.1643 13.3939 90.02 13.2842 88.917 13.5072C87.8139 13.7301 86.8015 14.2757 86.0074 15.0751C85.2134 15.8745 84.6734 16.8917 84.4556 17.9986C84.2378 19.1054 84.3519 20.252 84.7836 21.2939C85.2153 22.3357 85.9451 23.2259 86.8811 23.8522C87.817 24.4785 88.917 24.8127 90.0423 24.8128C90.7943 24.8207 91.5403 24.6777 92.2363 24.3921C92.9323 24.1066 93.5643 23.6842 94.095 23.15C94.6256 22.6157 95.0443 21.9804 95.3263 21.2814C95.6082 20.5824 95.7478 19.834 95.7368 19.0801Z" fill="#2B364E"/>
<path d="M114.105 17.4285V26.3189H112.199V17.4285C112.199 14.8516 110.783 13.3455 108.271 13.3455C105.719 13.3455 103.592 14.8516 103.592 18.7318V26.3189H101.686V11.8415H103.592V14.0995C104.719 12.2746 106.394 11.493 108.444 11.493C111.969 11.493 114.105 13.8101 114.105 17.4285Z" fill="#2B364E"/>
<path d="M117.516 25.0156C117.516 24.7006 117.609 24.3927 117.783 24.1308C117.958 23.8689 118.206 23.6648 118.496 23.5442C118.787 23.4237 119.106 23.3921 119.414 23.4536C119.722 23.515 120.005 23.6667 120.228 23.8894C120.45 24.1122 120.601 24.396 120.662 24.7049C120.724 25.0138 120.692 25.3341 120.572 25.6251C120.452 25.9161 120.248 26.1648 119.987 26.3398C119.726 26.5148 119.418 26.6082 119.104 26.6082C118.895 26.6106 118.687 26.571 118.494 26.4919C118.3 26.4127 118.124 26.2954 117.976 26.1471C117.828 25.9987 117.711 25.8222 117.632 25.6279C117.553 25.4336 117.513 25.2254 117.516 25.0156Z" fill="#2B364E"/>
<path d="M137.616 11.8415V26.3189H135.709V23.4801C134.498 25.4212 132.446 26.6654 129.876 26.6654C127.89 26.6333 125.996 25.82 124.603 24.4008C123.21 22.9816 122.43 21.0703 122.43 19.0792C122.43 17.0882 123.21 15.1769 124.603 13.7577C125.996 12.3385 127.89 11.5251 129.876 11.493C132.446 11.493 134.498 12.7392 135.709 14.6783V11.8415H137.616ZM135.709 19.0802C135.705 17.9521 135.367 16.8506 134.738 15.9149C134.11 14.9791 133.219 14.2511 132.178 13.8226C131.137 13.3941 129.993 13.2844 128.89 13.5073C127.787 13.7303 126.774 14.2759 125.98 15.0753C125.186 15.8746 124.646 16.8919 124.428 17.9987C124.21 19.1055 124.325 20.2522 124.756 21.294C125.188 22.3358 125.918 23.2261 126.854 23.8524C127.79 24.4787 128.89 24.8129 130.015 24.8129C130.767 24.8209 131.513 24.6779 132.209 24.3923C132.905 24.1067 133.537 23.6844 134.068 23.1501C134.598 22.6159 135.017 21.9806 135.299 21.2816C135.581 20.5826 135.72 19.8341 135.709 19.0802Z" fill="#2B364E"/>
<path d="M141.227 7.37461C141.227 7.09972 141.308 6.831 141.46 6.60244C141.613 6.37388 141.829 6.19573 142.082 6.09054C142.336 5.98534 142.614 5.95782 142.883 6.01145C143.152 6.06508 143.399 6.19745 143.593 6.39182C143.787 6.5862 143.919 6.83385 143.973 7.10346C144.026 7.37307 143.999 7.65252 143.894 7.90649C143.789 8.16045 143.611 8.37752 143.383 8.53024C143.155 8.68296 142.887 8.76447 142.613 8.76447C142.245 8.76395 141.893 8.61735 141.633 8.35682C141.373 8.09628 141.227 7.74306 141.227 7.37461ZM141.659 11.8356H143.565V26.313H141.659V11.8356Z" fill="#2B364E"/>
</svg>
